# xmcd
#
# Track frame offsets: 
#        225
#        14323
#        29998
#        57145
#        81050
#        93738
#        103903
#        123893
#        138407
#        152017
#        166076
#        178015
#        190264
#        204429
#        221270
#        236808
#
# Disc length: 3317 seconds
#
# Revision: 3
# Processed by: cddbd v1.5.2PL0 Copyright (c) Steve Scherf et al.
# Submitted via: ExactAudioCopy v0.90b4
#
DISCID=db0cf210
DTITLE=Various Artist - The Story Of The Blues (Volume 3)
DYEAR=1989
DGENRE=Blues
TTITLE0=Joe Liggins and The Honeydrippers - I´ve Got A Right To Cry
TTITLE1=Eddie "Cleanhead" Vinson - Cleanhead Blues
TTITLE2=Bishop"Gatemouth" Moore - Beale Street Ain't Beale Street
TTITLE3=Louis Jordan - Saturday Night Fish Frey
TTITLE4=Ray Charles - Rockin' Chair Blues
TTITLE5=Richard Berry - Louie Louie
TTITLE6=Joe Turner - Nothin' From Nothin' Blues
TTITLE7=Johnny Otis - Fannie Mae
TTITLE8=Roy Milton - Hush
TTITLE9=Little Walker Juke - You Better Watch Yourself
TTITLE10=Bo Didley - Walkin' And Talkin'
TTITLE11=Amos Milburn - C. C. Rider (See See Rider)
TTITLE12=Charles Brown - Let The Sunshine In My Life
TTITLE13=Pee Wee Crayton - Don't Forget To Close The Door
TTITLE14=Joe Liggins and The Honeydrippers - Goin' Back To L.A.
TTITLE15=Bishop "Gatemouth" Moore - Did You Ever Love A Woman
EXTD=
EXTT0=
EXTT1=
EXTT2=
EXTT3=
EXTT4=
EXTT5=
EXTT6=
EXTT7=
EXTT8=
EXTT9=
EXTT10=
EXTT11=
EXTT12=
EXTT13=
EXTT14=
EXTT15=
PLAYORDER=
